<svg width="180" height="40" viewBox="0 0 180 40" fill="none" xmlns="http://www.w3.org/2000/svg">
  <!-- Logo Mark -->
  <g>
    <!-- Outer Circle -->
    <circle cx="20" cy="20" r="18" stroke="#0066CC" stroke-width="2" fill="none"/>
    <!-- Inner Eye Shape -->
    <path d="M20 10C14 10 8.73 13.11 6 17.5C8.73 21.89 14 25 20 25C26 25 31.27 21.89 34 17.5C31.27 13.11 26 10 20 10ZM20 22.5C16.97 22.5 14.5 20.03 14.5 17C14.5 13.97 16.97 11.5 20 11.5C23.03 11.5 25.5 13.97 25.5 17C25.5 20.03 23.03 22.5 20 22.5Z" fill="#0066CC"/>
    <!-- Center Dot -->
    <circle cx="20" cy="17" r="3" fill="#0066CC"/>
    <!-- AI Sparkle -->
    <path d="M28 8L29.5 6.5L31 8L29.5 9.5L28 8Z" fill="#764ba2"/>
    <path d="M32 12L33 11L34 12L33 13L32 12Z" fill="#764ba2"/>
  </g>
  
  <!-- Text -->
  <g>
    <!-- SchoolVision -->
    <text x="48" y="24" font-family="Arial, sans-serif" font-size="18" font-weight="600" fill="#1F2937">
      SchoolVision
    </text>
    <!-- .AI -->
    <text x="145" y="24" font-family="Arial, sans-serif" font-size="18" font-weight="600" fill="#0066CC">
      .AI
    </text>
  </g>
</svg>